<svg width="29" height="29" viewBox="0 0 29 29" fill="none" xmlns="http://www.w3.org/2000/svg">
<rect x="0.5" y="0.5" width="27.6549" height="27.6549" rx="3.5" fill="#423325" stroke="#FF7F18"/>
<path fill-rule="evenodd" clip-rule="evenodd" d="M9.18705 18.121L7.99338 22.6539C7.96316 22.7747 7.91784 22.8049 7.76677 22.8049H5.54566C5.39459 22.8049 5.36431 22.7596 5.39459 22.5783L9.68566 7.55936C9.7612 7.28743 9.80652 7.04565 9.83673 6.30532C9.83673 6.19957 9.88206 6.15424 9.95759 6.15424H13.1306C13.2363 6.15424 13.2817 6.18446 13.3119 6.30532L18.1167 22.6085C18.1469 22.7293 18.1167 22.8049 17.9959 22.8049H15.4877C15.3668 22.8049 15.2912 22.7747 15.2611 22.669L14.0221 18.121H9.18705V18.121ZM13.3875 15.6733C12.9645 13.9961 11.9673 10.3396 11.5894 8.57178H11.5592C11.2419 10.3396 10.4412 13.3312 9.80658 15.6733H13.3875V15.6733Z" fill="#FF7F18"/>
<path fill-rule="evenodd" clip-rule="evenodd" d="M20.1868 7.27236C20.1868 6.30536 20.8667 5.73121 21.728 5.73121C22.6497 5.73121 23.2691 6.35068 23.2691 7.27236C23.2691 8.26958 22.6194 8.81351 21.6978 8.81351C20.8213 8.81357 20.1868 8.26958 20.1868 7.27236Z" fill="#FF7F18"/>
<path fill-rule="evenodd" clip-rule="evenodd" d="M20.353 10.7022C20.353 10.5813 20.3983 10.5208 20.5344 10.5208H22.9066C23.0274 10.5208 23.0878 10.5662 23.0878 10.7022V22.6236C23.0878 22.7444 23.0576 22.8049 22.9066 22.8049H20.5646C20.4135 22.8049 20.3681 22.7294 20.3681 22.6085V10.7022H20.353Z" fill="#FF7F18"/>
</svg>
