<svg width="29" height="29" viewBox="0 0 29 29" fill="none" xmlns="http://www.w3.org/2000/svg">
<rect x="0.5" y="0.5" width="27.6549" height="27.6549" rx="3.5" fill="#34364E" stroke="#31C5F0"/>
<path fill-rule="evenodd" clip-rule="evenodd" d="M20.0574 12.5165C18.9397 12.5165 18.5578 13.0823 18.5578 13.5491C18.5578 14.0584 18.8124 14.4121 20.312 15.1902C22.5331 16.2654 23.2263 17.2981 23.2263 18.8118C23.2263 21.0753 21.5004 22.2919 19.1661 22.2919C17.9353 22.2919 16.8743 22.0373 16.266 21.6836C16.167 21.6412 16.1528 21.5705 16.1528 21.4573V19.3777C16.1528 19.2362 16.2236 19.1937 16.3226 19.2645C17.2139 19.8446 18.2324 20.0992 19.1661 20.0992C20.2837 20.0992 20.7506 19.6323 20.7506 18.9957C20.7506 18.4864 20.4252 18.0337 18.9963 17.2981C16.9874 16.3361 16.1528 15.36 16.1528 13.7331C16.1528 11.9081 17.5817 10.3944 20.0574 10.3944C21.274 10.3944 22.1228 10.5784 22.5896 10.7905C22.7028 10.8613 22.7311 10.9744 22.7311 11.0734V13.0115C22.7311 13.1247 22.6604 13.1955 22.5189 13.153C21.8964 12.757 20.9769 12.5165 20.0574 12.5165V12.5165Z" fill="#31C5F0"/>
<path fill-rule="evenodd" clip-rule="evenodd" d="M7.89099 14.1999C8.21638 14.2282 8.47105 14.2282 9.03691 14.2282C10.6922 14.2282 12.2483 13.6482 12.2483 11.3989C12.2483 9.60225 11.1306 8.6968 9.24914 8.6968C8.68328 8.6968 8.14566 8.72509 7.89099 8.73924V14.1999ZM5.37286 6.68788C5.37286 6.58886 5.57095 6.51808 5.68405 6.51808C6.5895 6.47565 7.93344 6.44736 9.33396 6.44736C13.2526 6.44736 14.7805 8.59768 14.7805 11.3422C14.7805 14.9355 12.1774 16.4775 8.98028 16.4775C8.44272 16.4775 8.25883 16.4492 7.8768 16.4492V21.8816C7.8768 21.9948 7.83437 22.0514 7.70706 22.0514H5.5426C5.42944 22.0514 5.3728 22.0089 5.3728 21.8816V6.68788H5.37286Z" fill="#31C5F0"/>
</svg>
